<?xml version="1.0" standalone="no"?>
<!DOCTYPE svg PUBLIC "-//W3C//DTD SVG 20010904//EN"
 "http://www.w3.org/TR/2001/REC-SVG-20010904/DTD/svg10.dtd">
<svg version="1.0" xmlns="http://www.w3.org/2000/svg"
 width="512.000000pt" height="512.000000pt" viewBox="0 0 512.000000 512.000000"
 preserveAspectRatio="xMidYMid meet">

<style>
.a { fill: #1e2a49 }
.b { fill: #d6483e }
@media (prefers-color-scheme: dark) {
    .a { fill: #ffffff }
}
</style>

<g transform="translate(0.000000,512.000000) scale(0.100000,-0.100000)"
stroke="none">
<!--<path d="M1229 4200 c-108 -18 -211 -100 -263 -210 -27 -58 -31 -75 -31 -155
0 -77 4 -99 27 -148 56 -119 132 -184 252 -214 210 -51 416 106 433 332 19
242 -185 434 -418 395z"/>-->
<circle class="a" cx="1300" cy="3830" r="360" />
<!--<path d="M2489 4200 c-110 -19 -210 -99 -263 -210 -27 -58 -31 -75 -31 -155 0
-77 4 -98 28 -150 15 -32 39 -74 53 -93 39 -50 121 -100 197 -118 140 -35 285
22 369 144 138 201 52 486 -172 565 -59 21 -124 27 -181 17z"/>-->
<circle class="a" cx="2560" cy="3830" r="360" />
<!--<path d="M3749 4200 c-110 -19 -210 -98 -262 -208 -28 -59 -32 -78 -32 -152 0
-139 53 -246 158 -315 203 -134 465 -38 539 197 81 262 -138 523 -403 478z"/>-->
<circle class="a" cx="3820" cy="3830" r="360" />
<path class="b" d="M2338 3149 c-22 -13 -23 -45 -2 -53 9 -3 29 -6 44 -6 31 0 50 -23 50
-58 0 -17 4 -19 28 -13 61 16 28 110 -46 131 -45 12 -52 12 -74 -1z"/>
<path class="b" d="M2673 3145 c-65 -28 -86 -111 -30 -126 23 -6 27 -4 27 15 0 34 21 55
59 58 44 4 64 33 37 54 -24 17 -51 17 -93 -1z"/>
<path class="b" d="M2432 2939 c-57 -22 -139 -95 -166 -147 l-17 -32 301 0 301 0 -17 32
c-28 54 -109 125 -169 147 -72 27 -162 27 -233 0z"/>
<!--<path d="M1232 2929 c-112 -19 -212 -97 -266 -209 -28 -58 -31 -75 -31 -155 0
-77 4 -98 28 -150 38 -81 70 -120 130 -160 113 -74 236 -82 354 -25 198 97
263 360 137 547 -38 56 -76 88 -139 121 -36 18 -60 24 -140 36 -11 2 -44 -1
-73 -5z"/>-->
<circle class="a" cx="1300" cy="2570" r="360" />
<!--<path d="M3752 2929 c-113 -19 -213 -97 -266 -209 -27 -57 -31 -76 -31 -150 0
-180 93 -310 259 -361 190 -60 383 52 441 255 47 164 -34 354 -183 430 -42 22
-66 28 -147 40 -11 2 -44 -1 -73 -5z"/>-->
<circle class="a" cx="3820" cy="2570" r="360" />
<path class="b" d="M2074 2875 c-10 -25 1 -39 53 -71 l49 -31 16 28 17 28 -50 31 c-55
33 -77 37 -85 15z"/>
<path class="b" d="M2938 2859 l-47 -30 17 -28 16 -28 50 32 c38 24 51 39 51 56 0 35
-31 34 -87 -2z"/>
<path class="b" d="M2216 2675 c-14 -38 -17 -145 -6 -200 32 -157 126 -269 258 -309 l52
-15 0 270 0 269 -149 0 c-124 0 -150 -3 -155 -15z"/>
<path class="b" d="M2580 2421 l0 -270 52 15 c67 20 117 53 162 105 74 87 113 213 102
326 -10 100 2 93 -167 93 l-149 0 0 -269z"/>
<path class="b" d="M2000 2575 c-25 -30 -4 -45 65 -45 l65 0 0 30 c0 30 0 30 -59 30 -40
0 -63 -5 -71 -15z"/>
<path class="b" d="M2970 2560 l0 -30 65 0 c49 0 67 4 71 15 12 29 -16 45 -77 45 -59 0
-59 0 -59 -30z"/>
<path class="b" d="M2120 2309 c-55 -36 -65 -53 -44 -73 14 -15 21 -14 74 16 l59 32 -15
28 c-8 15 -18 28 -22 27 -4 0 -27 -14 -52 -30z"/>
<path class="b" d="M2906 2312 l-15 -28 57 -31 c62 -33 82 -33 82 1 0 17 -14 32 -51 55
-28 17 -52 31 -54 31 -3 0 -11 -13 -19 -28z"/>
<!--<path d="M1163 1639 c-73 -28 -156 -107 -193 -182 -91 -187 -10 -418 178 -505
48 -22 71 -27 142 -27 71 0 94 5 142 27 79 37 142 98 181 177 29 60 32 74 32
161 0 86 -3 101 -32 162 -37 78 -93 137 -165 174 -73 38 -208 44 -285 13z"/>-->
<circle class="a" cx="1300" cy="1310" r="360" />
<!--<path d="M2422 1639 c-75 -29 -162 -113 -196 -188 -86 -193 -3 -416 190 -503
74 -34 199 -32 276 4 80 37 142 98 180 177 30 60 33 75 33 161 0 86 -3 101
-32 162 -37 78 -93 137 -165 174 -74 38 -207 44 -286 13z"/>-->
<circle class="a" cx="2560" cy="1310" r="360" />
<!--<path d="M3676 1636 c-37 -16 -80 -45 -112 -77 -189 -186 -131 -501 112 -611
38 -17 68 -22 134 -23 77 0 92 3 152 33 81 39 148 112 180 192 17 42 22 77 23
145 0 81 -3 97 -32 157 -36 76 -95 139 -168 176 -40 21 -67 26 -140 29 -78 3
-98 0 -149 -21z"/>-->
<circle class="a" cx="3820" cy="1310" r="360" />
</g>
</svg>
